<?xml version="1.0" encoding="utf-8"?>
<svg width="100" height="100" viewBox="0 0 100 100" fill="none" xmlns="http://www.w3.org/2000/svg">
  <g>
    <path d="M80 0C91.0472 0 100 8.9528 100 20L100 80C100 91.0472 91.0472 100 80 100L20 100C8.9528 100 0 91.0472 0 80L0 20C0 8.9528 8.9528 0 20 0L80 0Z" fill="#F6F5F4" />
    <path d="M35 7.93818C35 6.37828 35 4.46029 35 2.90039C35 1.29855 33.6993 -0.0124941 32.1029 0.120085C26.202 0.610169 20.5046 2.59135 15.555 5.89856C9.79933 9.74441 5.3133 15.2107 2.66423 21.6061C0.0151644 28.0015 -0.677951 35.0388 0.67253 41.8282C2.02302 48.6175 5.35645 54.8539 10.2513 59.7487C15.1461 64.6436 21.3825 67.977 28.1719 69.3275C34.9612 70.6779 41.9985 69.9848 48.3939 67.3358C54.7893 64.6867 60.2556 60.2007 64.1014 54.4449C67.4086 49.4953 69.3898 43.798 69.8799 37.8971C70.0125 36.3007 68.7014 35 67.0996 35C65.5397 35 63.6217 35 62.0618 35C60.46 35 59.1794 36.3031 58.9876 37.8934C58.5348 41.6474 57.2052 45.257 55.0895 48.4233C52.4346 52.3967 48.6611 55.4935 44.2462 57.3222C39.8313 59.1509 34.9732 59.6294 30.2864 58.6972C25.5995 57.7649 21.2943 55.4637 17.9153 52.0847C14.5363 48.7057 12.2351 44.4005 11.3028 39.7136C10.3706 35.0268 10.849 30.1687 12.6778 25.7538C14.5065 21.3389 17.6033 17.5654 21.5766 14.9105C24.743 12.7948 28.3526 11.4652 32.1066 11.0124C33.6969 10.8206 35 9.54002 35 7.93818Z" fill="#3FB6DC" fill-rule="evenodd" transform="matrix(1 0 0 1 14.603 14.603)" />
    <path d="M7.50237 1.89096C8.40295 7.03742 12.9155 10.95 18.3471 10.95C23.7787 10.95 28.2913 7.03742 29.1918 1.89096C29.3728 0.857109 30.2062 0 31.2558 0C32.3441 0 33.7054 0 34.7938 0C35.8434 0 36.7047 0.853073 36.5963 1.89702C35.6423 11.0847 27.8359 18.25 18.3471 18.25C8.85828 18.25 1.05187 11.0847 0.0979233 1.89702C-0.0104675 0.853073 0.850834 0 1.90039 0C2.98876 0 4.35008 0 5.43845 0C6.48801 0 7.32145 0.857109 7.50237 1.89096Z" fill="#3FB6DC" fill-rule="evenodd" transform="matrix(1 0 0 1 31.746 51.746)" />
  </g>
</svg>